<svg xmlns="http://www.w3.org/2000/svg" width="24.394" height="17.152" viewBox="0 0 24.394 17.152"><defs><style>.a{fill:#0388dc;}</style></defs><path class="a" d="M24.934,7.184a3.065,3.065,0,0,0-2.157-2.171c-1.9-.513-9.53-.513-9.53-.513s-7.628,0-9.53.513A3.065,3.065,0,0,0,1.56,7.184a32.154,32.154,0,0,0-.51,5.91A32.154,32.154,0,0,0,1.56,19a3.019,3.019,0,0,0,2.157,2.136c1.9.513,9.53.513,9.53.513s7.628,0,9.53-.513A3.019,3.019,0,0,0,24.934,19a32.154,32.154,0,0,0,.51-5.91,32.154,32.154,0,0,0-.51-5.91ZM10.752,16.72V9.466l6.376,3.627L10.752,16.72Z" transform="translate(-1.05 -4.5)"/></svg>